<svg xmlns="http://www.w3.org/2000/svg" width="188.119" height="28.896" viewBox="0 0 188.119 28.896">
  <g id="White_Logo" data-name="White Logo" transform="translate(0)">
    <path id="Path_25" data-name="Path 25" d="M224.76,1190.35l-3.672-4.66-.463-.588a6.08,6.08,0,0,1-1.094-3.77,6.5,6.5,0,0,1,6.614-6.028,6.751,6.751,0,0,1,4.271,1.522.119.119,0,0,0,.179-.031,10.137,10.137,0,0,1,1.37-1.869.108.108,0,0,0-.013-.161,9.468,9.468,0,0,0-6.05-1.982,9.084,9.084,0,0,0-9,8.308,8.484,8.484,0,0,0,.1,1.923,8.588,8.588,0,0,0,1.681,3.835l.109.137,7.441,9.445a.088.088,0,0,0,.157-.047,6.07,6.07,0,0,1,.8-2.781.161.161,0,0,0-.013-.182Z" transform="translate(-216.886 -1172.78)" fill="#fff"/>
    <path id="Path_26" data-name="Path 26" d="M262.341,1190.094a2.4,2.4,0,0,0-1.44-.426,2.342,2.342,0,0,0-.608.077.059.059,0,0,0-.03.021l-.717.909a.043.043,0,0,0,.046.067,2.421,2.421,0,0,1,1.994.307,1.861,1.861,0,0,1,.093,2.584,7.956,7.956,0,0,1-2.6,1.99l-.214.123a4.967,4.967,0,0,0-2.6,2.995,2.963,2.963,0,0,0,1.137,3.029.061.061,0,0,0,.084-.01l.682-.866a.054.054,0,0,0-.01-.077,1.79,1.79,0,0,1-.674-1.806,3.84,3.84,0,0,1,2.025-2.239l.211-.122a8.989,8.989,0,0,0,2.978-2.33,2.979,2.979,0,0,0-.363-4.226" transform="translate(-238.163 -1182.031)" fill="#fff"/>
    <path id="Path_27" data-name="Path 27" d="M261.866,1181.123a9.049,9.049,0,0,0-9.465-8.34,9.5,9.5,0,0,0-4.551,1.28h0a9.59,9.59,0,0,0-2.107,1.623,6.326,6.326,0,0,0-1.187,1.663,5.362,5.362,0,0,0-.266.634,4.5,4.5,0,0,0-.252,2.06.546.546,0,0,0,.111.256l1.649,2.117a.074.074,0,0,0,.133-.04,13.6,13.6,0,0,1,.307-2.265,6.171,6.171,0,0,1,1.054-2.181,6.682,6.682,0,0,1,5.354-2.626,6.818,6.818,0,0,1,2.932.657,6.289,6.289,0,0,1,3.665,5.652,6.077,6.077,0,0,1-1.038,3.4l-.611.775-3.6,4.568-1.065,1.352-1.425,1.808-.906,1.151-2.572,3.264-.331.42a2.72,2.72,0,0,1-3.844.019l-.364-.461a2.426,2.426,0,0,1-.362-1.276,2.477,2.477,0,0,1,.961-1.948.109.109,0,0,0,.021-.155l-1.364-1.731a.121.121,0,0,0-.16-.026,4.637,4.637,0,0,0-1.659,1.883,4.579,4.579,0,0,0-.438,1.978,4.872,4.872,0,0,0,.911,2.835q.144.2.307.39a5.335,5.335,0,0,0,3.4,1.781,5.347,5.347,0,0,0,1.322,0,5.331,5.331,0,0,0,3.467-1.866l.167-.212,2.3-2.926,4.561-5.79,2.837-3.6q.267-.309.5-.64a8.52,8.52,0,0,0,1.6-5.478" transform="translate(-229.66 -1172.78)" fill="#fff"/>
    <g id="Group_412" data-name="Group 412" transform="translate(40.534 9.069)">
      <path id="Path_28" data-name="Path 28" d="M615.758,1192.833v4.839h-6.041v-4.839h-1.225v10.759h1.225v-4.823h6.041v4.823h1.225v-10.759Z" transform="translate(-469.398 -1192.833)" fill="#fff"/>
      <path id="Path_29" data-name="Path 29" d="M583.01,1203.592h1.225v-9.662h4v-1.1h-9.241v1.1h4.016Z" transform="translate(-453.431 -1192.833)" fill="#fff"/>
      <path id="Path_30" data-name="Path 30" d="M558.857,1203.592h7.028v-1.129h-5.8v-9.63h-1.225Z" transform="translate(-442.531 -1192.833)" fill="#fff"/>
      <path id="Path_31" data-name="Path 31" d="M532.628,1199.124h-3.982l1.991-4.919Zm3.131,4.468-4.51-10.759h-1.225l-4.527,10.759h1.327l1.362-3.355h4.9l1.361,3.355Z" transform="translate(-424.473 -1192.833)" fill="#fff"/>
      <path id="Path_32" data-name="Path 32" d="M500.242,1203.592h7.164v-1.1h-5.939v-3.726h5.224v-1.129h-5.224v-3.71h5.939v-1.1h-7.164Z" transform="translate(-410.803 -1192.833)" fill="#fff"/>
      <path id="Path_33" data-name="Path 33" d="M468,1203.592h1.225v-4.823h6.041v4.823h1.225v-10.759h-1.225v4.839h-6.041v-4.839H468Z" transform="translate(-393.35 -1192.833)" fill="#fff"/>
      <path id="Path_34" data-name="Path 34" d="M438.6,1199.35H435.72l1.43-4.065Zm4.339,4.242-4.016-10.759h-3.012l-4.289,10.759h2.6l.817-2.323h4.237l.834,2.323Z" transform="translate(-373.656 -1192.833)" fill="#fff"/>
      <path id="Path_35" data-name="Path 35" d="M411.551,1196.511a1.538,1.538,0,0,1-.4,1.121,1.651,1.651,0,0,1-1.234.411H407.91v-3.177h2.008a1.449,1.449,0,0,1,1.633,1.646m2.978-.178a3.13,3.13,0,0,0-1.115-2.629,5.023,5.023,0,0,0-3.157-.871h-5.105v10.759h2.757v-3.532h2.348a4.679,4.679,0,0,0,3.14-.968,3.431,3.431,0,0,0,1.132-2.758" transform="translate(-359.33 -1192.833)" fill="#fff"/>
      <path id="Path_36" data-name="Path 36" d="M375.912,1192.833l-3.251,4.194-3.182-4.194h-2.808v10.759h2.638v-7.258l3.25,4.193,3.336-4.21v7.275h2.757v-10.759Z" transform="translate(-338.5 -1192.833)" fill="#fff"/>
      <path id="Path_37" data-name="Path 37" d="M344.388,1192.833h-2.74l-2.331,4.081-2.57-4.081H333.36l4.305,6.1v4.662h2.757v-4.613Z" transform="translate(-320.468 -1192.833)" fill="#fff"/>
      <path id="Path_38" data-name="Path 38" d="M308.437,1203.592h2.757v-8.742h3.233v-2.016h-9.173v2.016h3.182Z" transform="translate(-305.254 -1192.833)" fill="#fff"/>
    </g>
  </g>
</svg>